<?xml version="1.0" encoding="UTF-8"?>
<svg xmlns="http://www.w3.org/2000/svg" width="1600" height="900" viewBox="0 0 1600 900" role="img" aria-labelledby="title desc">
  <title id="title">Build a Life Dashboard Before Another Goal List</title>
  <desc id="desc">Goals show where to go. A dashboard shows how to move, review, and stay oriented today.</desc>
  <defs>
    <linearGradient id="headerGradient" x1="0" y1="0" x2="1" y2="0">
      <stop offset="0" stop-color="#061b56"/>
      <stop offset="0.52" stop-color="#06489a"/>
      <stop offset="1" stop-color="#0a66bd"/>
    </linearGradient>
    <linearGradient id="footerGradient" x1="0" y1="0" x2="1" y2="0">
      <stop offset="0" stop-color="#053a82"/>
      <stop offset="1" stop-color="#075fbd"/>
    </linearGradient>
    <linearGradient id="barGradient" x1="0" y1="1" x2="0" y2="0">
      <stop offset="0" stop-color="#0a66bd"/>
      <stop offset="1" stop-color="#39a7f5"/>
    </linearGradient>
    <filter id="softShadow" x="-8%" y="-8%" width="116%" height="116%">
      <feDropShadow dx="0" dy="8" stdDeviation="9" flood-color="#16335c" flood-opacity="0.12"/>
    </filter>
  </defs>
  <rect width="1600" height="900" fill="#edf5fb"/>
  <path d="M0 160 H1600 M0 440 H1600 M0 742 H1600" stroke="#dce9f6" stroke-width="1"/>
  <path d="M110 132 V760 M520 132 V760 M1046 132 V760 M1536 132 V760" stroke="#e4eef7" stroke-width="1"/>
  
    <rect x="0" y="0" width="1600" height="132" fill="url(#headerGradient)"/>
    <path d="M960 94 C1100 30 1260 162 1580 30" fill="none" stroke="#74b8ff" stroke-width="5" opacity="0.55"/>
    <path d="M970 108 C1130 52 1300 170 1585 62" fill="none" stroke="#d8eeff" stroke-width="2" opacity="0.72"/>
    <circle cx="1435" cy="32" r="6" fill="#ffffff" opacity="0.65"/>
    <circle cx="1505" cy="70" r="4" fill="#ffffff" opacity="0.55"/>
    <text x="54" y="28" font-size="18" font-weight="800" fill="#a8d1ff" letter-spacing="2">Article Summary Map</text>
    <text x="52" y="60" font-size="34" font-weight="800" fill="#ffffff"><tspan x="52" dy="0">Build a Life Dashboard Before Another Goal List</tspan></text>
    <text x="54" y="105" font-size="22" font-weight="600" fill="#dcecff"><tspan x="54" dy="0">Goals show where to go. A dashboard shows how to move, review, and stay</tspan></text>
    <text x="1044" y="58" font-size="22" font-weight="800" fill="#ffffff">Life Operating System</text>
    <text x="1044" y="82" font-size="18" font-weight="600" fill="#cfe4ff">Life OS | 2026-06-11</text>
    <rect x="1028" y="92" width="150" height="32" rx="16" fill="#e7f1ff" opacity="0.92"/>
        <text x="1103" y="114" text-anchor="middle" font-size="17" font-weight="700" fill="#06489a">Goals</text><rect x="1186" y="92" width="150" height="32" rx="16" fill="#e7f1ff" opacity="0.92"/>
        <text x="1261" y="114" text-anchor="middle" font-size="17" font-weight="700" fill="#06489a">Review</text><rect x="1344" y="92" width="150" height="32" rx="16" fill="#e7f1ff" opacity="0.92"/>
        <text x="1419" y="114" text-anchor="middle" font-size="17" font-weight="700" fill="#06489a">Action Loop</text>
  
    <g filter="url(#softShadow)">
      <rect x="36" y="160" width="488" height="272" rx="16" fill="#ffffff" stroke="#bcd3ee" stroke-width="1.5"/>
      <rect x="36" y="160" width="488" height="48" rx="16" fill="#06489a"/>
      <rect x="36" y="192" width="488" height="16" fill="#06489a"/>
      <text x="58" y="192" font-size="23" font-weight="800" fill="#ffffff">1. Core Thesis</text>
      <circle cx="68" cy="224" r="8" fill="#0b66c3"/>
      <path d="M64 224 l3.2 3.6 l6.2 -7.1" fill="none" stroke="#ffffff" stroke-width="2.2" stroke-linecap="round" stroke-linejoin="round"/><text x="90" y="232" font-size="21" font-weight="600" fill="#19375f"><tspan x="90" dy="0">A goal list captures desire; a</tspan><tspan x="90" dy="31">dashboard manages operation.</tspan></text><circle cx="68" cy="298" r="8" fill="#0b66c3"/>
      <path d="M64 298 l3.2 3.6 l6.2 -7.1" fill="none" stroke="#ffffff" stroke-width="2.2" stroke-linecap="round" stroke-linejoin="round"/><text x="90" y="306" font-size="21" font-weight="600" fill="#19375f"><tspan x="90" dy="0">Without an operating surface, goals</tspan><tspan x="90" dy="31">stay as emotion and slogans.</tspan></text><circle cx="68" cy="372" r="8" fill="#0b66c3"/>
      <path d="M64 372 l3.2 3.6 l6.2 -7.1" fill="none" stroke="#ffffff" stroke-width="2.2" stroke-linecap="round" stroke-linejoin="round"/><text x="90" y="380" font-size="21" font-weight="600" fill="#19375f"><tspan x="90" dy="0">Reliable change usually comes from</tspan><tspan x="90" dy="31">process, not annual drama.</tspan></text>
    </g>
  
    <g filter="url(#softShadow)">
      <rect x="544" y="160" width="512" height="272" rx="16" fill="#ffffff" stroke="#bcd3ee" stroke-width="1.5"/>
      <rect x="544" y="160" width="512" height="48" rx="16" fill="#06489a"/>
      <rect x="544" y="192" width="512" height="16" fill="#06489a"/>
      <text x="566" y="192" font-size="23" font-weight="800" fill="#ffffff">2. System Model</text>
      
    <text x="560" y="240" font-size="24" font-weight="800" fill="#073a78">Four Dashboard Areas</text>
    <rect x="560" y="260" width="456" height="132" rx="18" fill="#f4f9ff" stroke="#c9ddf2"/>
    <path d="M590 356 C750 228, 836 415, 992 264" fill="none" stroke="#c8dff5" stroke-width="3" stroke-dasharray="10 12"/>
    <path d="M702 345 H651.3333333333334" stroke="#1e8fe6" stroke-width="4" stroke-linecap="round"/>
           <path d="M649.3333333333334 345 l-10 -7 v14 z" fill="#1e8fe6"/><rect x="560" y="310" width="128" height="70" rx="14" fill="#eaf4ff" stroke="#79b8ed" stroke-width="2"/>
        <circle cx="624" cy="292" r="18" fill="#075bb4"/>
        <text x="624" y="300" text-anchor="middle" font-size="19" font-weight="800" fill="#ffffff">1</text>
        <text text-anchor="middle" x="624" y="353" font-size="20" font-weight="800" fill="#07407f"><tspan x="624" dy="0">Priorities</tspan></text><path d="M811.3333333333334 345 H760.6666666666667" stroke="#1e8fe6" stroke-width="4" stroke-linecap="round"/>
           <path d="M758.6666666666667 345 l-10 -7 v14 z" fill="#1e8fe6"/><rect x="669.3333333333334" y="310" width="128" height="70" rx="14" fill="#eaf4ff" stroke="#79b8ed" stroke-width="2"/>
        <circle cx="733.3333333333334" cy="292" r="18" fill="#075bb4"/>
        <text x="733.3333333333334" y="300" text-anchor="middle" font-size="19" font-weight="800" fill="#ffffff">2</text>
        <text text-anchor="middle" x="733.3333333333334" y="353" font-size="20" font-weight="800" fill="#07407f"><tspan x="733.3333333333334" dy="0">Resources</tspan></text><path d="M920.6666666666666 345 H870" stroke="#1e8fe6" stroke-width="4" stroke-linecap="round"/>
           <path d="M868 345 l-10 -7 v14 z" fill="#1e8fe6"/><rect x="778.6666666666666" y="310" width="128" height="70" rx="14" fill="#eaf4ff" stroke="#79b8ed" stroke-width="2"/>
        <circle cx="842.6666666666666" cy="292" r="18" fill="#075bb4"/>
        <text x="842.6666666666666" y="300" text-anchor="middle" font-size="19" font-weight="800" fill="#ffffff">3</text>
        <text text-anchor="middle" x="842.6666666666666" y="342" font-size="20" font-weight="800" fill="#07407f"><tspan x="842.6666666666666" dy="0">Review</tspan><tspan x="842.6666666666666" dy="24">Notes</tspan></text><rect x="888" y="310" width="128" height="70" rx="14" fill="#eaf4ff" stroke="#79b8ed" stroke-width="2"/>
        <circle cx="952" cy="292" r="18" fill="#075bb4"/>
        <text x="952" y="300" text-anchor="middle" font-size="19" font-weight="800" fill="#ffffff">4</text>
        <text text-anchor="middle" x="952" y="342" font-size="20" font-weight="800" fill="#07407f"><tspan x="952" dy="0">Next</tspan><tspan x="952" dy="24">Actions</tspan></text>
    </g>
  
    <g filter="url(#softShadow)">
      <rect x="1076" y="160" width="488" height="272" rx="16" fill="#ffffff" stroke="#bcd3ee" stroke-width="1.5"/>
      <rect x="1076" y="160" width="488" height="48" rx="16" fill="#06489a"/>
      <rect x="1076" y="192" width="488" height="16" fill="#06489a"/>
      <text x="1098" y="192" font-size="23" font-weight="800" fill="#ffffff">3. Comparison</text>
      
    <rect x="1100" y="226" width="396" height="176" rx="14" fill="#f7fbff" stroke="#c9ddf2"/>
    <rect x="1110" y="238" width="184" height="32" rx="16" fill="#e8eef6"/>
    <rect x="1302" y="238" width="184" height="32" rx="16" fill="#d8ecff"/>
    <text x="1202" y="261" text-anchor="middle" font-size="18" font-weight="800" fill="#61718a">Old Model</text>
    <text x="1394" y="261" text-anchor="middle" font-size="18" font-weight="800" fill="#075bb4">New Model</text>
    <line x1="1298" y1="282" x2="1298" y2="388" stroke="#c8d7e8" stroke-width="2" stroke-dasharray="6 8"/>
    <rect x="1100" y="257" width="396" height="32" rx="8" fill="#f5f9fd"/>
        <text x="1116" y="282" font-size="18" font-weight="700" fill="#65758d">Names the distance</text>
        <text x="1318" y="282" font-size="18" font-weight="800" fill="#075bb4">Manages today</text><rect x="1100" y="293" width="396" height="32" rx="8" fill="#ffffff"/>
        <text x="1116" y="318" font-size="18" font-weight="700" fill="#65758d">Runs on enthusiasm</text>
        <text x="1318" y="318" font-size="18" font-weight="800" fill="#075bb4">Runs on process</text><rect x="1100" y="329" width="396" height="32" rx="8" fill="#f5f9fd"/>
        <text x="1116" y="354" font-size="18" font-weight="700" fill="#65758d">Finds drift late</text>
        <text x="1318" y="354" font-size="18" font-weight="800" fill="#075bb4">Calibrates weekly</text><rect x="1100" y="365" width="396" height="32" rx="8" fill="#ffffff"/>
        <text x="1116" y="390" font-size="18" font-weight="700" fill="#65758d">Tracks outcomes</text>
        <text x="1318" y="390" font-size="18" font-weight="800" fill="#075bb4">Tracks resources too</text>
    </g>
  
    <g filter="url(#softShadow)">
      <rect x="36" y="462" width="730" height="282" rx="16" fill="#ffffff" stroke="#bcd3ee" stroke-width="1.5"/>
      <rect x="36" y="462" width="730" height="48" rx="16" fill="#075f8d"/>
      <rect x="36" y="494" width="730" height="16" fill="#075f8d"/>
      <text x="58" y="494" font-size="23" font-weight="800" fill="#ffffff">4. Practice</text>
      <circle cx="72" cy="542" r="8" fill="#0d8e78"/>
      <path d="M68 542 l3.2 3.6 l6.2 -7.1" fill="none" stroke="#ffffff" stroke-width="2.2" stroke-linecap="round" stroke-linejoin="round"/><text x="94" y="550" font-size="20" font-weight="600" fill="#19375f"><tspan x="94" dy="0">Create one page with priorities, resources, review, and next</tspan><tspan x="94" dy="30">actions.</tspan></text><circle cx="72" cy="614" r="8" fill="#0d8e78"/>
      <path d="M68 614 l3.2 3.6 l6.2 -7.1" fill="none" stroke="#ffffff" stroke-width="2.2" stroke-linecap="round" stroke-linejoin="round"/><text x="94" y="622" font-size="20" font-weight="600" fill="#19375f"><tspan x="94" dy="0">Choose only 1-3 weekly priorities.</tspan></text><circle cx="72" cy="656" r="8" fill="#0d8e78"/>
      <path d="M68 656 l3.2 3.6 l6.2 -7.1" fill="none" stroke="#ffffff" stroke-width="2.2" stroke-linecap="round" stroke-linejoin="round"/><text x="94" y="664" font-size="20" font-weight="600" fill="#19375f"><tspan x="94" dy="0">Mark energy, cash flow, relationships, and learning health.</tspan></text><circle cx="72" cy="698" r="8" fill="#0d8e78"/>
      <path d="M68 698 l3.2 3.6 l6.2 -7.1" fill="none" stroke="#ffffff" stroke-width="2.2" stroke-linecap="round" stroke-linejoin="round"/><text x="94" y="706" font-size="20" font-weight="600" fill="#19375f"><tspan x="94" dy="0">Turn each goal into one action that can be done tomorrow.</tspan></text>
    </g>
  
    <g filter="url(#softShadow)">
      <rect x="786" y="462" width="778" height="282" rx="16" fill="#ffffff" stroke="#bcd3ee" stroke-width="1.5"/>
      <rect x="786" y="462" width="778" height="48" rx="16" fill="#075f8d"/>
      <rect x="786" y="494" width="778" height="16" fill="#075f8d"/>
      <text x="808" y="494" font-size="23" font-weight="800" fill="#ffffff">5. Dashboard Warnings</text>
      <circle cx="824" cy="542" r="8" fill="#e07a1f"/>
      <path d="M820 542 l3.2 3.6 l6.2 -7.1" fill="none" stroke="#ffffff" stroke-width="2.2" stroke-linecap="round" stroke-linejoin="round"/><text x="846" y="550" font-size="20" font-weight="600" fill="#19375f"><tspan x="846" dy="0">Are there too many priorities?</tspan></text><circle cx="824" cy="584" r="8" fill="#e07a1f"/>
      <path d="M820 584 l3.2 3.6 l6.2 -7.1" fill="none" stroke="#ffffff" stroke-width="2.2" stroke-linecap="round" stroke-linejoin="round"/><text x="846" y="592" font-size="20" font-weight="600" fill="#19375f"><tspan x="846" dy="0">Are resources being overdrawn for too long?</tspan></text><circle cx="824" cy="626" r="8" fill="#e07a1f"/>
      <path d="M820 626 l3.2 3.6 l6.2 -7.1" fill="none" stroke="#ffffff" stroke-width="2.2" stroke-linecap="round" stroke-linejoin="round"/><text x="846" y="634" font-size="20" font-weight="600" fill="#19375f"><tspan x="846" dy="0">Does review capture feedback, not only feelings?</tspan></text><circle cx="824" cy="668" r="8" fill="#e07a1f"/>
      <path d="M820 668 l3.2 3.6 l6.2 -7.1" fill="none" stroke="#ffffff" stroke-width="2.2" stroke-linecap="round" stroke-linejoin="round"/><text x="846" y="676" font-size="20" font-weight="600" fill="#19375f"><tspan x="846" dy="0">Is the next action specific enough for tomorrow?</tspan></text>
    </g>
  <rect x="36" y="770" width="1528" height="96" rx="18" fill="url(#footerGradient)" filter="url(#softShadow)"/>
  <circle cx="98" cy="818" r="34" fill="#ffffff" opacity="0.16"/>
  <path d="M82 820 h32 M98 804 v32 M87 807 l22 22 M109 807 l-22 22" stroke="#ffffff" stroke-width="5" stroke-linecap="round" opacity="0.9"/>
  <text x="150" y="800" font-size="19" font-weight="800" fill="#b9dbff">Quote</text>
  <line x1="212" y1="792" x2="212" y2="842" stroke="#82bff4" stroke-width="2" opacity="0.7"/>
  <text x="236" y="812" font-size="28" font-weight="800" fill="#ffffff"><tspan x="236" dy="0">Goals help you look up. A dashboard keeps you from drifting.</tspan></text>
</svg>
